<svg width="170" height="302" viewBox="0 0 170 302" fill="none" xmlns="http://www.w3.org/2000/svg">
<path d="M164.829 269.864L58.7208 164.25C55.2408 160.758 53.2881 156.039 53.2881 151.121C53.2881 146.203 55.2408 141.484 58.7208 137.993L164.829 32.3517C166.094 31.0953 167.097 29.6029 167.781 27.9602C168.466 26.3175 168.818 24.5566 168.818 22.7782C168.818 20.9998 168.466 19.2389 167.781 17.5962C167.097 15.9535 166.094 14.4613 164.829 13.2048L156.803 5.08274C155.541 3.82423 154.041 2.82578 152.391 2.14457C150.74 1.46336 148.971 1.11279 147.185 1.11279C145.398 1.11279 143.629 1.46336 141.978 2.14457C140.328 2.82578 138.829 3.82423 137.566 5.08274L7.99444 134.051C5.74151 136.29 3.95416 138.948 2.73466 141.875C1.51516 144.802 0.887451 147.939 0.887451 151.108C0.887451 154.276 1.51516 157.414 2.73466 160.34C3.95416 163.267 5.74151 165.926 7.99444 168.164L137.566 297.133C139.038 298.608 140.833 299.724 142.81 300.394C144.787 301.064 146.894 301.269 148.964 300.994C152.099 300.532 154.99 299.042 157.177 296.76L164.963 289.038C166.219 287.77 167.213 286.268 167.886 284.619C168.559 282.969 168.9 281.204 168.887 279.423C168.875 277.643 168.51 275.882 167.814 274.242C167.117 272.601 166.103 271.114 164.829 269.864V269.864Z" fill="white" stroke="white"/>
</svg>
