<svg width="170" height="302" viewBox="0 0 170 302" fill="none" xmlns="http://www.w3.org/2000/svg">
<path d="M5.09467 32.3498L111.162 137.992C114.641 141.483 116.593 146.202 116.593 151.121C116.593 156.039 114.641 160.758 111.162 164.249L5.09467 269.865C3.82995 271.124 2.82669 272.618 2.14219 274.263C1.45769 275.908 1.10541 277.671 1.10541 279.452C1.10541 281.232 1.45769 282.995 2.14219 284.64C2.82669 286.285 3.82995 287.78 5.09467 289.039L13.1179 297.028C14.3821 298.287 15.883 299.286 17.535 299.968C19.187 300.649 20.9577 301 22.7458 301C24.534 301 26.3047 300.649 27.9567 299.968C29.6087 299.286 31.1096 298.287 32.3738 297.028L161.896 168.058C164.148 165.819 165.934 163.16 167.154 160.233C168.373 157.307 169 154.169 169 151.001C169 147.832 168.373 144.695 167.154 141.768C165.934 138.841 164.148 136.183 161.896 133.944L32.3738 4.97382C30.8978 3.50538 29.1032 2.39379 27.1281 1.72436C25.1529 1.05493 23.0499 0.845645 20.9807 1.11257C17.8448 1.59189 14.9522 3.07871 12.7435 5.34668L4.98776 13.0962C3.7147 14.3616 2.70663 15.866 2.02213 17.5224C1.33763 19.1788 0.990256 20.9541 1.00021 22.7452C1.01016 24.5364 1.37721 26.3076 2.08008 27.9564C2.78294 29.6051 3.80763 31.0985 5.09467 32.3498V32.3498Z" fill="white" stroke="white"/>
</svg>
